<?xml version="1.0" standalone="no"?>
<!DOCTYPE svg PUBLIC "-//W3C//DTD SVG 20010904//EN"
 "http://www.w3.org/TR/2001/REC-SVG-20010904/DTD/svg10.dtd">
<svg version="1.0" xmlns="http://www.w3.org/2000/svg"
 width="500.000000pt" height="500.000000pt" viewBox="0 0 500.000000 500.000000"
 preserveAspectRatio="xMidYMid meet">

<g transform="translate(0.000000,500.000000) scale(0.100000,-0.100000)"
fill="#000000" stroke="none">
<path d="M2399 4793 c-57 -29 -91 -32 -200 -18 -55 7 -57 6 -79 -23 -21 -29
-26 -31 -84 -29 -65 2 -116 -19 -116 -47 0 -9 -18 -15 -55 -18 -42 -4 -59 -10
-70 -26 -8 -11 -31 -30 -50 -42 -22 -14 -38 -33 -43 -52 l-8 -31 -89 -1 c-50
-1 -96 -5 -102 -9 -7 -5 -13 -20 -13 -35 0 -19 -10 -35 -34 -54 -28 -22 -33
-33 -33 -67 0 -29 -6 -46 -21 -58 -12 -10 -32 -38 -44 -63 -24 -45 -42 -75
-84 -140 -12 -19 -27 -53 -33 -75 -5 -22 -15 -61 -22 -87 -6 -26 -22 -62 -36
-80 -17 -23 -22 -40 -18 -59 4 -19 -1 -34 -20 -57 -28 -34 -34 -100 -11 -141
11 -20 10 -31 -11 -85 -13 -33 -33 -80 -43 -104 -24 -51 -25 -72 -5 -98 23
-31 18 -52 -47 -210 l-63 -149 1 -145 c1 -280 41 -393 155 -440 24 -10 41 -11
73 -2 24 6 45 7 50 2 5 -5 10 -134 10 -287 1 -234 -3 -308 -22 -468 -21 -166
-51 -342 -68 -398 -9 -29 -39 -37 -176 -47 -145 -11 -227 -19 -513 -51 -163
-19 -203 -20 -282 -10 -50 6 -115 11 -142 11 l-51 0 0 -550 0 -550 2500 0
2500 0 0 368 -1 367 -150 70 c-275 128 -325 143 -573 180 -92 14 -189 30 -213
36 -25 5 -111 11 -192 14 -138 3 -155 6 -302 49 -86 25 -177 54 -201 65 -25
10 -71 24 -102 31 -43 9 -59 17 -65 33 -5 13 -3 86 5 170 14 158 21 179 107
305 37 55 77 144 112 250 24 75 30 84 65 102 51 26 86 74 100 135 7 28 19 70
27 95 58 169 64 203 66 345 2 132 1 142 -22 179 -23 37 -23 39 -8 66 10 16 17
42 17 59 0 21 7 35 25 47 13 9 41 50 62 93 31 63 39 91 45 166 4 50 10 113 14
142 4 33 0 84 -10 143 -16 83 -16 95 -2 144 22 75 20 110 -9 168 -21 41 -24
59 -19 101 5 48 3 56 -34 112 -21 34 -64 82 -95 109 -37 32 -57 56 -57 70 0
25 -3 28 -112 122 -85 74 -91 82 -92 138 -1 39 -3 40 -107 107 -58 37 -121 72
-140 76 -30 8 -34 13 -37 46 -4 49 -30 64 -73 42 -28 -15 -32 -15 -48 -1 -25
23 -49 20 -83 -9 -24 -20 -33 -23 -44 -14 -8 6 -14 17 -14 25 0 24 -38 34
-152 40 -62 3 -130 12 -151 20 -53 20 -76 18 -138 -13z m-1274 -2323 c3 -5 -1
-10 -9 -10 -9 0 -16 5 -16 10 0 6 4 10 9 10 6 0 13 -4 16 -10z m53 -42 c2 -18
-4 -31 -20 -42 -21 -15 -24 -15 -35 1 -18 24 -16 34 7 40 11 3 20 12 20 20 0
25 25 8 28 -19z m1298 -231 c38 -33 27 -57 -25 -57 -59 0 -91 15 -91 43 0 32
7 37 51 37 25 0 47 -8 65 -23z m159 -67 c3 -5 -1 -10 -9 -10 -9 0 -16 5 -16
10 0 6 4 10 9 10 6 0 13 -4 16 -10z m882 -16 c8 -20 -13 -42 -27 -28 -12 12
-3 44 11 44 5 0 12 -7 16 -16z m-3189 -1083 c3 -20 0 -22 -39 -19 -52 4 -62
24 -17 37 43 12 52 9 56 -18z"/>
</g>
</svg>
